<svg width="200" height="200" viewBox="0 0 200 200" fill="none" xmlns="http://www.w3.org/2000/svg">
<g filter="url(#filter0_b_63_49)">
<path d="M200 100C200 155.228 155.228 200 100 200C44.7715 200 0 155.228 0 100C0 44.7715 44.7715 0 100 0C155.228 0 200 44.7715 200 100Z" fill="white"/>
<path d="M198.5 100C198.5 154.4 154.4 198.5 100 198.5C45.6 198.5 1.5 154.4 1.5 100C1.5 45.6 45.6 1.5 100 1.5C154.4 1.5 198.5 45.6 198.5 100Z" stroke="#356370" stroke-width="3"/>
</g>
<path fill-rule="evenodd" clip-rule="evenodd" d="M94.9504 129.394C93.1157 128.854 40.9146 113.329 32.565 92.6984C24.0658 71.6986 42.5635 40.6983 74.065 48.6984C80.7346 50.0937 91.611 60.6691 93.0635 63.6983L93.0968 63.7725C97.7655 48.9039 112.078 41.3501 123.909 40.5449C140 39.4497 168 58.4088 168 96.9088C168.5 110.909 160.03 128.169 150.765 134.539C142.209 140.422 137.979 141.296 132.732 142.381C132.297 142.471 131.856 142.562 131.404 142.658C125.5 143.909 106.734 145.468 106.734 145.468C106.966 145.616 107.193 145.761 107.414 145.903C111.862 148.745 114.309 150.308 117.039 153.275C117.978 157.16 104.861 163.268 103.924 158.896C102.987 154.524 106.734 153.275 106.734 153.275C106.475 153.194 105.947 153.061 105.221 152.879C100.156 151.606 85.4745 147.916 85.5 142.658C85.8689 139.648 88.9779 134.407 94.9504 129.394Z" fill="#5B9CAE" fill-opacity="0.75"/>
<path d="M95 129.5C101.67 124.017 106.002 121 109.002 120.5C112.002 120 113.231 117.183 110.502 115C107.773 112.817 99.4733 103.204 96.002 94C92.0946 82.4463 90.9493 76.7569 93 64" stroke="#356370" stroke-width="2"/>
<ellipse cx="116.227" cy="72.9702" rx="5.93316" ry="8.7436" transform="rotate(33.9529 116.227 72.9702)" fill="#356370"/>
<ellipse cx="142.47" cy="63.7213" rx="8.11906" ry="5.62089" transform="rotate(28.4791 142.47 63.7213)" fill="#356370"/>
<path d="M146.392 78.3294C143.582 78.3295 123.285 84.8871 122.659 87.073C122.034 89.2589 127.03 92.6939 128.592 93.3184C130.155 93.9429 134.837 95.1921 139.21 94.2553C143.582 93.3184 149.375 87.0319 150.139 84.8871C151.29 81.6558 149.342 78.3293 146.392 78.3294Z" fill="#356370"/>
<ellipse cx="48.4469" cy="85.1183" rx="6" ry="8" transform="rotate(-47.2208 48.4469 85.1183)" fill="#356370"/>
<ellipse cx="72.7759" cy="87.3499" rx="3.39099" ry="9.5" transform="rotate(-47.2208 72.7759 87.3499)" fill="#356370"/>
<ellipse cx="68.1978" cy="65.2461" rx="6" ry="8" transform="rotate(-47.2208 68.1978 65.2461)" fill="#356370"/>
<defs>
<filter id="filter0_b_63_49" x="-4" y="-4" width="208" height="208" filterUnits="userSpaceOnUse" color-interpolation-filters="sRGB">
<feFlood flood-opacity="0" result="BackgroundImageFix"/>
<feGaussianBlur in="BackgroundImage" stdDeviation="2"/>
<feComposite in2="SourceAlpha" operator="in" result="effect1_backgroundBlur_63_49"/>
<feBlend mode="normal" in="SourceGraphic" in2="effect1_backgroundBlur_63_49" result="shape"/>
</filter>
</defs>
</svg>
